<svg xmlns="http://www.w3.org/2000/svg" xmlns:xlink="http://www.w3.org/1999/xlink" id="Layer_2" viewBox="0 0 266.69 47.17">
  <defs>
    <style>
      .cls-1 {
        fill: none;
      }

      .cls-2 {
        fill: url(#linear-gradient-3);
      }

      .cls-3 {
        fill: url(#linear-gradient-2);
      }

      .cls-4 {
        fill: url(#linear-gradient);
      }

      .cls-5 {
        opacity: .03;
      }

      .cls-5, .cls-6, .cls-7, .cls-8 {
        isolation: isolate;
      }

      .cls-5, .cls-9 {
        fill: #131847;
      }

      .cls-10 {
        fill: #fff;
      }

      .cls-6 {
        fill: #34347a;
        opacity: .2;
      }

      .cls-7 {
        fill: url(#linear-gradient-4);
        opacity: .25;
      }

      .cls-8 {
        fill: #0097ab;
        opacity: .3;
      }

      .cls-11 {
        fill: #fcfefd;
      }

      .cls-12 {
        fill: #e7e1ea;
      }

      .cls-13 {
        clip-path: url(#clippath);
      }
    </style>
    <linearGradient id="linear-gradient" x1="0" y1="250.25" x2="68.45" y2="250.25" gradientTransform="translate(0 273.09) scale(1 -1)" gradientUnits="userSpaceOnUse">
      <stop offset="0" stop-color="#ffaa67"/>
      <stop offset=".21" stop-color="#ff7e7a"/>
      <stop offset=".46" stop-color="#ff518c"/>
      <stop offset="1" stop-color="#5e309c"/>
    </linearGradient>
    <linearGradient id="linear-gradient-2" x1="20.61" y1="264.32" x2="28.25" y2="264.32" gradientTransform="translate(0 273.09) scale(1 -1)" gradientUnits="userSpaceOnUse">
      <stop offset="0" stop-color="#ffaa67"/>
      <stop offset=".5" stop-color="#ff7e7a"/>
      <stop offset=".83" stop-color="#ff518c"/>
      <stop offset="1" stop-color="#5e309c"/>
    </linearGradient>
    <linearGradient id="linear-gradient-3" x1="28.88" y1="264.05" x2="59.81" y2="264.52" gradientTransform="translate(0 273.09) scale(1 -1)" gradientUnits="userSpaceOnUse">
      <stop offset="0" stop-color="#ffaa67"/>
      <stop offset=".5" stop-color="#ff7e7a"/>
      <stop offset=".67" stop-color="#ff518c"/>
      <stop offset="1" stop-color="#5e309c"/>
    </linearGradient>
    <clipPath id="clippath">
      <path class="cls-1" d="M25.24,39.89c-4.16,0-7.01-.72-8.47-2.15-1.42-1.39-2.15-4.1-2.15-8.05s.72-6.67,2.15-8.05c1.47-1.43,4.32-2.15,8.47-2.15h17.8c4.16,0,7.01.72,8.47,2.15,1.42,1.39,2.15,4.1,2.15,8.05s-.72,6.67-2.15,8.05c-1.47,1.43-4.32,2.15-8.47,2.15h-17.8Z"/>
    </clipPath>
    <linearGradient id="linear-gradient-4" x1="-698.66" y1="-821.97" x2="-677.83" y2="-869.89" gradientTransform="translate(1267.87 715.29) rotate(90) scale(1 -1.46)" gradientUnits="userSpaceOnUse">
      <stop offset=".15" stop-color="#fff" stop-opacity="0"/>
      <stop offset=".28" stop-color="#fff" stop-opacity=".25"/>
      <stop offset=".52" stop-color="#fff" stop-opacity=".65"/>
      <stop offset=".69" stop-color="#fff" stop-opacity=".9"/>
      <stop offset=".77" stop-color="#fff"/>
    </linearGradient>
  </defs>
  <g id="Layer_2-2" data-name="Layer_2">
    <g>
      <path class="cls-10" d="M94.65,22.5c-1.57,0-2.85-.11-3.86-.32s-1.8-.6-2.36-1.17c-.57-.57-.96-1.39-1.19-2.46s-.34-2.47-.34-4.19v-.42c0-1.42.07-2.61.21-3.57s.38-1.75.72-2.35c.34-.61.81-1.07,1.39-1.39.59-.32,1.33-.54,2.22-.65s1.96-.17,3.21-.17h4.21c1.25,0,2.32.06,3.21.17.89.12,1.63.33,2.22.65.59.32,1.05.78,1.39,1.39s.58,1.39.72,2.35.21,2.16.21,3.57v.42c0,1.72-.11,3.11-.34,4.19-.23,1.07-.62,1.89-1.19,2.46s-1.36.96-2.36,1.17c-1.01.21-2.3.32-3.86.32h-4.21ZM94.65,20.76h4.21c1,0,1.83-.03,2.52-.1.68-.07,1.24-.22,1.66-.45.43-.23.75-.58.98-1.04.23-.47.38-1.09.46-1.87s.12-1.76.12-2.94v-.42c0-1.22-.04-2.23-.12-3.03s-.24-1.42-.46-1.88c-.23-.46-.55-.79-.98-1.01-.43-.21-.98-.35-1.66-.41s-1.52-.09-2.52-.09h-4.21c-1,0-1.83.03-2.52.09-.68.06-1.24.19-1.67.41-.43.21-.75.55-.98,1.01s-.38,1.09-.46,1.88-.13,1.8-.13,3.03v.42c0,1.18.04,2.16.13,2.94s.24,1.4.46,1.87.55.81.98,1.04c.43.23.98.38,1.67.45.68.07,1.52.1,2.52.1Z"/>
      <path class="cls-10" d="M109.82,26.17V10.14h2v1.37c.51-.67,1.21-1.11,2.09-1.3.89-.19,1.97-.29,3.26-.29s2.49.07,3.43.21,1.69.42,2.27.83c.58.42,1,1.04,1.26,1.86s.4,1.91.4,3.28-.13,2.53-.4,3.37c-.26.84-.69,1.47-1.26,1.89s-1.33.7-2.27.83-2.08.2-3.43.2-2.37-.1-3.26-.29-1.58-.63-2.09-1.32v5.39s-2,0-2,0ZM122.53,16.09c0-1-.05-1.79-.15-2.39s-.32-1.05-.66-1.35c-.34-.3-.87-.51-1.59-.61s-1.7-.16-2.95-.16c-1.13,0-2.05.05-2.76.16s-1.24.31-1.62.61c-.38.3-.63.75-.77,1.35s-.21,1.4-.21,2.39.07,1.85.21,2.47.4,1.08.77,1.39c.38.31.92.51,1.62.62.7.1,1.62.15,2.76.15,1.25,0,2.23-.05,2.95-.15.72-.1,1.25-.31,1.59-.62.34-.31.56-.77.66-1.39.1-.62.15-1.44.15-2.47Z"/>
      <path class="cls-10" d="M141.13,18.59c0,.9-.13,1.6-.4,2.12-.27.51-.68.89-1.23,1.13s-1.25.39-2.1.45c-.85.07-1.87.1-3.04.1-1.34,0-2.48-.07-3.42-.2s-1.69-.41-2.26-.83c-.57-.42-.99-1.05-1.25-1.89s-.39-1.97-.39-3.37.13-2.46.38-3.28.67-1.44,1.24-1.86c.57-.42,1.32-.7,2.25-.83.93-.14,2.06-.21,3.41-.21,1.54,0,2.81.11,3.82.32s1.76.63,2.26,1.23.75,1.49.75,2.66v2.58h-12.09c0,.89.07,1.6.19,2.14.12.54.35.94.71,1.21s.89.45,1.59.54c.71.09,1.65.13,2.82.13,1.06,0,1.91-.02,2.56-.06.65-.04,1.14-.13,1.48-.28.34-.14.56-.36.68-.64.12-.29.18-.67.18-1.15h1.87-.01ZM134.3,11.58c-1.13,0-2.05.04-2.74.12s-1.22.25-1.58.49-.61.6-.74,1.07c-.13.47-.2,1.1-.2,1.87h10.17v-1c0-.5-.06-.92-.17-1.25-.12-.33-.34-.59-.67-.78s-.83-.33-1.48-.4c-.65-.08-1.51-.11-2.58-.11h0Z"/>
      <path class="cls-10" d="M144.25,22.16v-12.02h2v1.6c.3-.4.67-.74,1.11-1.01s1.03-.47,1.77-.61,1.71-.2,2.92-.2c1.57,0,2.81.15,3.72.46s1.55.85,1.94,1.64.57,1.9.57,3.34v6.82h-2.01v-6.82c0-.82-.07-1.48-.21-1.98s-.38-.88-.72-1.14-.8-.43-1.39-.52c-.59-.09-1.34-.13-2.25-.13-1.39,0-2.48.11-3.28.34-.79.23-1.35.59-1.68,1.08-.33.49-.49,1.13-.49,1.92v7.24h-2Z"/>
      <path class="cls-10" d="M185.71,17.53c0-.62-.05-1.11-.15-1.46-.1-.36-.32-.62-.66-.79s-.87-.28-1.59-.33-1.7-.09-2.94-.11l-5.8-.08c-1.43-.02-2.58-.11-3.45-.26s-1.53-.4-1.97-.73-.74-.77-.89-1.33c-.15-.56-.22-1.25-.22-2.09,0-.91.1-1.66.31-2.25.21-.59.58-1.05,1.12-1.39.54-.33,1.3-.57,2.29-.71.99-.14,2.26-.2,3.83-.2h4.47c1.42,0,2.6.04,3.55.14.95.09,1.7.3,2.25.63s.96.83,1.19,1.52c.24.69.36,1.64.36,2.84h-2c0-.93-.09-1.64-.27-2.11-.18-.48-.47-.8-.88-.98-.41-.17-.96-.27-1.64-.28-.69-.01-1.54-.02-2.57-.02h-4.36c-1.25,0-2.24.02-2.99.07s-1.31.16-1.7.33c-.38.17-.64.45-.77.83s-.19.91-.19,1.58c0,.56.05,1.02.14,1.36s.29.6.61.78c.32.18.81.3,1.47.37s1.56.11,2.7.12l6.22.08c1.46.02,2.63.11,3.5.26s1.53.39,1.96.72c.43.33.72.79.87,1.35.14.57.21,1.28.21,2.14,0,.94-.09,1.73-.27,2.36s-.52,1.15-1.03,1.53c-.51.38-1.24.66-2.2.83-.96.17-2.22.25-3.79.25h-4.88c-1.43,0-2.62-.06-3.59-.19s-1.74-.38-2.31-.76c-.57-.38-.99-.94-1.24-1.7-.25-.75-.38-1.75-.38-3.01h2c0,.98.08,1.74.24,2.28s.44.92.84,1.15.96.37,1.68.42c.72.04,1.64.07,2.75.07h4.78c1.25,0,2.23-.04,2.95-.12s1.26-.23,1.61-.46.57-.55.67-.98c.1-.42.15-.99.15-1.68h.01Z"/>
      <path class="cls-10" d="M197.85,22.39c-1.34,0-2.48-.07-3.42-.2-.94-.14-1.7-.41-2.28-.83s-1-1.05-1.26-1.89-.4-1.97-.4-3.37.13-2.46.4-3.28c.26-.82.69-1.44,1.26-1.86.58-.42,1.34-.7,2.28-.83.94-.14,2.08-.21,3.42-.21s2.49.07,3.43.21c.94.14,1.69.42,2.27.83.58.42,1,1.04,1.26,1.86s.4,1.91.4,3.28-.13,2.53-.4,3.37-.69,1.47-1.26,1.89c-.58.42-1.33.7-2.27.83-.94.14-2.08.2-3.43.2ZM203.2,16.09c0-1-.05-1.79-.15-2.39-.1-.6-.32-1.05-.66-1.35s-.87-.51-1.59-.61-1.7-.16-2.95-.16-2.22.05-2.94.16-1.26.31-1.6.61-.56.75-.66,1.35-.15,1.4-.15,2.39.05,1.85.15,2.47c.1.62.32,1.08.66,1.39s.87.51,1.6.62c.72.1,1.7.15,2.94.15s2.23-.05,2.95-.15,1.25-.31,1.59-.62.56-.77.66-1.39c.1-.62.15-1.44.15-2.47Z"/>
      <path class="cls-10" d="M214.22,22.39c-1.57,0-2.81-.17-3.72-.52-.9-.34-1.55-.92-1.93-1.73s-.57-1.92-.57-3.32v-6.68h2.01v6.68c0,.79.06,1.45.19,1.96s.36.91.68,1.19c.33.28.79.48,1.38.59.59.11,1.36.17,2.3.17,1.39,0,2.48-.11,3.28-.34s1.35-.59,1.69-1.08c.33-.49.5-1.13.5-1.92v-7.24h2v12.02h-2v-1.6c-.29.4-.66.74-1.11,1.01s-1.04.47-1.78.61c-.75.14-1.72.2-2.92.2Z"/>
      <path class="cls-10" d="M225.45,22.16v-12.02h2v1.66c.22-.35.45-.65.67-.89.23-.24.52-.42.89-.56s.86-.24,1.49-.3,1.45-.09,2.47-.09v1.68c-1.38,0-2.44.05-3.2.15-.75.1-1.3.26-1.62.5-.33.23-.53.56-.59.97-.07.41-.1.93-.1,1.57v7.35h-2v-.02Z"/>
      <path class="cls-10" d="M243.05,22.39c-1.34,0-2.48-.07-3.42-.2s-1.7-.41-2.28-.83-1-1.05-1.26-1.89-.4-1.97-.4-3.37.13-2.46.4-3.28.69-1.44,1.26-1.86c.58-.42,1.34-.7,2.28-.83.94-.14,2.08-.21,3.42-.21,1.61,0,2.93.09,3.97.28,1.04.18,1.81.56,2.31,1.13s.75,1.44.75,2.61h-1.92c0-.67-.14-1.18-.42-1.51s-.79-.56-1.52-.67-1.79-.17-3.17-.17c-1.24,0-2.22.05-2.94.16s-1.26.31-1.6.61-.56.75-.66,1.35-.15,1.4-.15,2.39.05,1.85.15,2.47.32,1.08.66,1.39.87.51,1.6.62c.72.1,1.71.15,2.94.15,1.05,0,1.91-.03,2.58-.09s1.19-.18,1.55-.35.62-.43.77-.77c.14-.34.21-.79.21-1.35h1.92c0,.93-.14,1.68-.42,2.24s-.7.99-1.27,1.27-1.3.48-2.19.57c-.89.1-1.94.15-3.16.15h0Z"/>
      <path class="cls-10" d="M266.68,18.59c0,.9-.13,1.6-.4,2.12-.27.51-.68.89-1.23,1.13s-1.25.39-2.1.45c-.85.07-1.87.1-3.04.1-1.34,0-2.48-.07-3.42-.2-.94-.14-1.69-.41-2.27-.83-.57-.42-.99-1.05-1.25-1.89s-.39-1.97-.39-3.37.13-2.46.38-3.28.67-1.44,1.24-1.86,1.32-.7,2.25-.83c.93-.14,2.06-.21,3.41-.21,1.54,0,2.81.11,3.82.32s1.76.63,2.26,1.23c.5.61.75,1.49.75,2.66v2.58h-12.09c0,.89.07,1.6.19,2.14.12.54.36.94.71,1.21s.89.45,1.59.54,1.65.13,2.82.13c1.06,0,1.91-.02,2.56-.06.65-.04,1.14-.13,1.48-.28.34-.14.57-.36.68-.64s.18-.67.18-1.15h1.87,0ZM259.85,11.58c-1.13,0-2.05.04-2.74.12s-1.22.25-1.58.49-.61.6-.74,1.07c-.13.47-.2,1.1-.2,1.87h10.17v-1c0-.5-.06-.92-.17-1.25-.11-.33-.34-.59-.67-.78s-.83-.33-1.48-.4c-.65-.08-1.51-.11-2.58-.11h0Z"/>
      <path class="cls-10" d="M87.56,43.16v-16.03h15.74v1.67h-13.74v5.34h13.16v1.67h-13.16v5.68h14.03v1.67s-16.03,0-16.03,0Z"/>
      <path class="cls-10" d="M113.12,43.39c-1.34,0-2.48-.07-3.42-.2-.94-.14-1.7-.41-2.28-.83-.58-.42-1-1.05-1.26-1.89s-.4-1.97-.4-3.37.13-2.46.4-3.28c.26-.82.69-1.44,1.26-1.86.58-.42,1.34-.7,2.28-.83.94-.14,2.08-.21,3.42-.21,1.61,0,2.93.09,3.97.28,1.04.18,1.81.56,2.31,1.13.5.57.75,1.44.75,2.61h-1.92c0-.67-.14-1.18-.42-1.51s-.79-.56-1.52-.67c-.74-.11-1.8-.17-3.17-.17-1.24,0-2.22.05-2.94.16s-1.26.31-1.6.61-.56.75-.66,1.35c-.1.6-.15,1.4-.15,2.39s.05,1.85.15,2.47c.1.62.32,1.08.66,1.39s.87.51,1.6.62,1.7.15,2.94.15c1.05,0,1.91-.03,2.58-.09s1.19-.18,1.55-.35c.37-.18.62-.43.77-.77.14-.34.21-.79.21-1.35h1.92c0,.93-.14,1.68-.42,2.24s-.7.99-1.27,1.27c-.57.29-1.3.48-2.19.57-.89.1-1.94.15-3.16.15h0Z"/>
      <path class="cls-10" d="M130,43.39c-1.34,0-2.48-.07-3.42-.2-.94-.14-1.7-.41-2.28-.83-.58-.42-1-1.05-1.26-1.89s-.4-1.97-.4-3.37.13-2.46.4-3.28c.26-.82.69-1.44,1.26-1.86.58-.42,1.34-.7,2.28-.83.94-.14,2.08-.21,3.42-.21s2.49.07,3.43.21c.94.14,1.69.42,2.27.83.58.42,1,1.04,1.26,1.86s.4,1.91.4,3.28-.13,2.53-.4,3.37-.69,1.47-1.26,1.89c-.58.42-1.33.7-2.27.83-.94.14-2.08.2-3.43.2ZM135.36,37.09c0-.99-.05-1.79-.15-2.39-.1-.6-.32-1.05-.66-1.35s-.87-.51-1.59-.61-1.7-.16-2.95-.16-2.22.05-2.94.16-1.26.31-1.6.61-.56.75-.66,1.35c-.1.6-.15,1.4-.15,2.39s.05,1.85.15,2.47c.1.62.32,1.08.66,1.39s.87.51,1.6.62,1.7.15,2.94.15,2.23-.05,2.95-.15,1.25-.31,1.59-.62.56-.77.66-1.39.15-1.44.15-2.47Z"/>
      <path class="cls-10" d="M140.23,43.16v-12.02h2v1.6c.3-.4.67-.74,1.11-1.01s1.03-.47,1.77-.61,1.71-.2,2.92-.2c1.57,0,2.81.15,3.72.46s1.55.85,1.94,1.64c.38.79.57,1.9.57,3.34v6.82h-2.01v-6.82c0-.82-.07-1.48-.21-1.98s-.38-.88-.72-1.14-.8-.43-1.39-.52-1.34-.13-2.25-.13c-1.39,0-2.48.12-3.28.34-.79.23-1.35.59-1.68,1.08-.33.49-.49,1.13-.49,1.92v7.24h-2Z"/>
      <path class="cls-10" d="M164.42,43.39c-1.34,0-2.48-.07-3.42-.2-.94-.14-1.7-.41-2.28-.83-.58-.42-1-1.05-1.26-1.89s-.4-1.97-.4-3.37.13-2.46.4-3.28c.26-.82.69-1.44,1.26-1.86.58-.42,1.34-.7,2.28-.83.94-.14,2.08-.21,3.42-.21s2.49.07,3.43.21c.94.14,1.69.42,2.27.83.58.42,1,1.04,1.26,1.86s.4,1.91.4,3.28-.13,2.53-.4,3.37-.69,1.47-1.26,1.89c-.58.42-1.33.7-2.27.83-.94.14-2.08.2-3.43.2ZM169.77,37.09c0-.99-.05-1.79-.15-2.39-.1-.6-.32-1.05-.66-1.35s-.87-.51-1.59-.61-1.7-.16-2.95-.16-2.22.05-2.94.16-1.26.31-1.6.61-.56.75-.66,1.35-.15,1.4-.15,2.39.05,1.85.15,2.47c.1.62.32,1.08.66,1.39s.87.51,1.6.62,1.7.15,2.94.15,2.23-.05,2.95-.15,1.25-.31,1.59-.62.56-.77.66-1.39.15-1.44.15-2.47Z"/>
      <path class="cls-10" d="M174.65,43.16v-12.02h2v1.49c.3-.4.66-.74,1.07-1.01s.95-.47,1.6-.61c.65-.14,1.48-.2,2.5-.2,1.26,0,2.29.17,3.08.51.79.34,1.38.93,1.75,1.76.34-.53.75-.96,1.23-1.3s1.08-.58,1.81-.74,1.62-.24,2.69-.24c1.27,0,2.3.17,3.09.52.79.34,1.38.93,1.75,1.76.37.83.56,1.96.56,3.4v6.68h-2v-6.68c0-1.1-.11-1.94-.34-2.51s-.61-.97-1.14-1.18-1.25-.32-2.16-.32c-1.77,0-3.04.26-3.79.78s-1.13,1.37-1.13,2.56h0c0,.21,0,.43,0,.67v6.68h-2v-6.68c0-1.1-.11-1.94-.34-2.51s-.61-.97-1.14-1.18-1.25-.32-2.16-.32c-1.77,0-3.04.26-3.79.78s-1.13,1.37-1.13,2.56v7.35h-2.02Z"/>
      <path class="cls-10" d="M202.13,47.17v-1.67c.72,0,1.31-.02,1.78-.05s.86-.12,1.18-.26c.32-.14.6-.37.86-.69s.52-.77.8-1.34h-.67l-6.68-12.02h2.3l5.72,10.53,4.81-10.53h2.35l-6.1,12.69c-.27.56-.55,1.05-.84,1.47-.29.42-.65.77-1.09,1.04s-1,.49-1.71.62-1.61.2-2.71.2h0Z"/>
      <path class="cls-4" d="M68.45,24.62v-2.52l-5.53,2.22c-.43-7.88-3.48-12.97-9.27-15.48-1.77-3.1-4.09-6.65-5.99-7.96l-.15-.1-.08-.04c-.17-.11-.34-.21-.5-.29l-.1-.06-.28-.11-.09.12.05-.13C46.29.19,45.78,0,45.11,0,43.1,0,41.22,1.2,37.95,7.02h-7.01c-2.95-4.79-4.42-5.81-4.9-6.14l-.14-.1-.07-.04c-.18-.12-.36-.22-.53-.3l-.1-.06-.27-.1-.09.12.05-.13c-.22-.08-.73-.27-1.4-.27-1.78,0-3.86.69-8.05,8.66-6.15,2.46-9.35,7.71-9.73,15.96l-5.71-2.3v2.52l5.7,2.26c.01.74.05,1.46.11,2.16L0,31.55v2.55l6.11-2.46c1.63,9.42,7.97,14.04,19.3,14.04h17.83c11.37,0,17.72-4.65,19.32-14.15l5.88,2.37v-2.55l-5.59-2.2c.06-.75.1-1.53.11-2.33l5.48-2.17v-.03Z"/>
      <path class="cls-11" d="M17.53,11.71s4.15-8.47,6.01-8.47,6.45,8.47,6.45,8.47v1.86h-12.46v-1.86Z"/>
      <path class="cls-3" d="M20.61,11.08c.76-1.59,1.74-3.33,2.49-4.4.2-.29.7-.3.92-.01.8,1.07,1.87,2.81,2.73,4.41h-6.14Z"/>
      <path class="cls-8" d="M23.09,6.68c-.75,1.07-1.72,2.81-2.49,4.4h1.46c.13-1.34.84-4.62,1.5-4.62-.18,0-.37.07-.47.22Z"/>
      <path class="cls-12" d="M23.81,3.3c2.3,2.45,5.29,9.05,5.81,10.26h.37v-1.86s-4.18-7.66-6.17-8.41h-.01Z"/>
      <path class="cls-12" d="M20.61,11.08c.76-1.59,1.74-3.33,2.49-4.4.11-.15.29-.22.47-.22,0,0-.57-.16-1.48,1.18-1.13,1.66-2.23,3.78-2.23,3.78h1.06l.18-.33h-.49Z"/>
      <path class="cls-11" d="M39.14,11.71s4.15-8.47,6.01-8.47,6.45,8.47,6.45,8.47v1.86h-12.46v-1.86Z"/>
      <path class="cls-2" d="M42.22,11.08c.76-1.59,1.74-3.33,2.49-4.4.2-.29.7-.3.92-.01.8,1.07,1.87,2.81,2.73,4.41h-6.14Z"/>
      <path class="cls-8" d="M44.7,6.68c-.75,1.07-1.72,2.81-2.49,4.4h1.46c.13-1.34.84-4.62,1.5-4.62-.18,0-.37.07-.47.22Z"/>
      <path class="cls-12" d="M45.42,3.3c2.3,2.45,5.29,9.05,5.81,10.26h.37v-1.86s-4.18-7.66-6.17-8.41h-.01Z"/>
      <path class="cls-12" d="M42.22,11.08c.76-1.59,1.74-3.33,2.49-4.4.11-.15.29-.22.47-.22,0,0-.57-.16-1.48,1.18-1.13,1.66-2.23,3.78-2.23,3.78h1.06l.18-.33h-.49Z"/>
      <path class="cls-11" d="M43.24,42.52h-17.8c-11.56,0-16.54-4.85-16.54-16.13h0c0-11.28,4.98-16.13,16.54-16.13h17.8c11.56,0,16.54,4.85,16.54,16.13h0c0,11.28-4.98,16.13-16.54,16.13Z"/>
      <path class="cls-12" d="M25.44,40.54c-4.32,0-7.31-.78-8.89-2.32-1.54-1.5-2.33-4.36-2.33-8.48s.78-6.97,2.33-8.48c1.58-1.54,4.57-2.32,8.89-2.32h17.8c4.32,0,7.31.78,8.89,2.32,1.54,1.5,2.33,4.36,2.33,8.48s-.78,6.97-2.33,8.48c-1.58,1.54-4.57,2.32-8.89,2.32,0,0-17.8,0-17.8,0Z"/>
      <path class="cls-5" d="M25.44,39.95c-4.16,0-7.01-.72-8.47-2.15-1.42-1.39-2.15-4.1-2.15-8.05s.72-6.67,2.15-8.05c1.47-1.43,4.32-2.15,8.47-2.15h17.8c4.16,0,7.01.72,8.47,2.15,1.42,1.39,2.15,4.1,2.15,8.05s-.72,6.67-2.15,8.05c-1.47,1.43-4.32,2.15-8.47,2.15h-17.8Z"/>
      <path class="cls-12" d="M43.28,10.26h-2.52c10.72,0,16.22,4.5,16.22,14.95h0c0,10.45-4.61,14.95-15.33,14.95h-17.38c-10.51,0-15.15-4.33-15.32-14.36v.59h0c0,11.28,4.98,16.13,16.54,16.13h17.8c11.56,0,16.54-4.85,16.54-16.13h0c0-11.28-4.98-16.13-16.54-16.13h0Z"/>
      <rect class="cls-9" x="43.56" y="26.75" width=".83" height=".83" transform="translate(15.94 70.59) rotate(-88.86)"/>
      <rect class="cls-9" x="44.38" y="26.76" width=".83" height=".83" transform="translate(16.73 71.43) rotate(-88.87)"/>
      <rect class="cls-9" x="44.35" y="28.42" width=".83" height=".83" transform="translate(15.05 73.02) rotate(-88.86)"/>
      <rect class="cls-9" x="43.52" y="28.4" width=".83" height=".83" transform="translate(14.26 72.17) rotate(-88.87)"/>
      <rect class="cls-9" x="42.7" y="27.55" width=".83" height=".83" transform="translate(14.31 70.53) rotate(-88.87)"/>
      <rect class="cls-9" x="45.22" y="25.94" width=".83" height=".83" transform="translate(18.39 71.47) rotate(-88.87)"/>
      <rect class="cls-9" x="45.15" y="29.26" width=".83" height=".83" transform="translate(15 74.65) rotate(-88.87)"/>
      <rect class="cls-9" x="46.06" y="25.96" width=".83" height=".83" transform="translate(19.18 72.32) rotate(-88.86)"/>
      <rect class="cls-9" x="45.99" y="29.27" width=".83" height=".83" transform="translate(15.8 75.5) rotate(-88.87)"/>
      <rect class="cls-9" x="41.88" y="27.54" width=".83" height=".83" transform="translate(13.51 69.69) rotate(-88.87)"/>
      <rect class="cls-9" x="34.11" y="29" width=".83" height=".83" transform="translate(4.44 63.36) rotate(-88.87)"/>
      <rect class="cls-9" x="34.94" y="29.03" width=".83" height=".83" transform="translate(5.22 64.21) rotate(-88.87)"/>
      <rect class="cls-9" x="33.28" y="28.99" width=".83" height=".83" transform="translate(3.63 62.51) rotate(-88.86)"/>
      <rect class="cls-9" x="34.1" y="29.84" width=".83" height=".83" transform="translate(3.58 64.16) rotate(-88.86)"/>
      <rect class="cls-9" x="34.08" y="30.67" width=".83" height=".83" transform="translate(2.74 64.96) rotate(-88.87)"/>
      <rect class="cls-9" x="34.89" y="31.52" width=".83" height=".83" transform="translate(2.68 66.6) rotate(-88.87)"/>
      <rect class="cls-9" x="33.24" y="31.48" width=".83" height=".83" transform="translate(1.1 64.91) rotate(-88.86)"/>
      <rect class="cls-9" x="32.4" y="32.3" width=".83" height=".83" transform="translate(-.55 64.87) rotate(-88.86)"/>
      <rect class="cls-9" x="35.71" y="32.35" width=".83" height=".83" transform="translate(2.65 68.23) rotate(-88.86)"/>
      <rect class="cls-9" x="36.54" y="32.37" width=".83" height=".83" transform="translate(3.44 69.08) rotate(-88.86)"/>
      <rect class="cls-9" x="31.56" y="32.28" width=".83" height=".83" transform="translate(-1.35 64.01) rotate(-88.86)"/>
      <rect class="cls-9" x="34.13" y="28.18" width=".83" height=".83" transform="translate(5.27 62.57) rotate(-88.87)"/>
      <rect class="cls-9" x="34.97" y="28.2" width=".83" height=".83" transform="translate(6.07 63.42) rotate(-88.86)"/>
      <rect class="cls-9" x="33.3" y="28.16" width=".83" height=".83" transform="translate(4.48 61.72) rotate(-88.87)"/>
      <rect class="cls-9" x="34.04" y="33.15" width=".83" height=".83" transform="translate(.2 67.35) rotate(-88.86)"/>
      <rect class="cls-9" x="34.86" y="33.17" width=".83" height=".83" transform="translate(1 68.19) rotate(-88.87)"/>
      <rect class="cls-9" x="33.21" y="33.14" width=".83" height=".83" transform="translate(-.6 66.51) rotate(-88.86)"/>
      <rect class="cls-9" x="34.04" y="32.32" width=".83" height=".83" transform="translate(1.05 66.54) rotate(-88.87)"/>
      <rect class="cls-9" x="34.88" y="32.33" width=".83" height=".83" transform="translate(1.86 67.39) rotate(-88.87)"/>
      <rect class="cls-9" x="33.23" y="32.3" width=".83" height=".83" transform="translate(.27 65.71) rotate(-88.87)"/>
      <rect class="cls-9" x="34.01" y="33.98" width=".83" height=".83" transform="translate(-.64 68.13) rotate(-88.87)"/>
      <rect class="cls-9" x="34.85" y="33.99" width=".83" height=".83" transform="translate(.17 68.98) rotate(-88.86)"/>
      <rect class="cls-9" x="33.19" y="33.95" width=".83" height=".83" transform="translate(-1.42 67.29) rotate(-88.87)"/>
      <rect class="cls-9" x="34.06" y="31.49" width=".83" height=".83" transform="translate(1.89 65.74) rotate(-88.86)"/>
      <rect class="cls-9" x="37.38" y="31.56" width=".83" height=".83" transform="translate(5.08 69.13) rotate(-88.87)"/>
      <rect class="cls-9" x="30.75" y="31.43" width=".83" height=".83" transform="translate(-1.29 62.37) rotate(-88.86)"/>
      <rect class="cls-9" x="24.23" y="26.74" width=".83" height=".83" transform="translate(-.54 .5) rotate(-1.14)"/>
      <rect class="cls-9" x="23.39" y="26.77" width=".83" height=".83" transform="translate(-.53 .47) rotate(-1.13)"/>
      <rect class="cls-9" x="23.43" y="28.42" width=".83" height=".83" transform="translate(-.57 .48) rotate(-1.14)"/>
      <rect class="cls-9" x="24.25" y="28.4" width=".83" height=".83" transform="translate(-.56 .49) rotate(-1.13)"/>
      <rect class="cls-9" x="25.07" y="27.56" width=".83" height=".83" transform="translate(-.55 .51) rotate(-1.13)"/>
      <rect class="cls-9" x="22.55" y="25.95" width=".83" height=".83" transform="translate(-.52 .46) rotate(-1.13)"/>
      <rect class="cls-9" x="22.62" y="29.26" width=".83" height=".83" transform="translate(-.58 .46) rotate(-1.13)"/>
      <rect class="cls-9" x="21.72" y="25.96" width=".83" height=".83" transform="translate(-.52 .45) rotate(-1.14)"/>
      <rect class="cls-9" x="21.79" y="29.28" width=".83" height=".83" transform="translate(-.58 .44) rotate(-1.13)"/>
      <rect class="cls-9" x="25.9" y="27.55" width=".83" height=".83" transform="translate(-.55 .52) rotate(-1.13)"/>
      <path class="cls-6" d="M25.24,39.89c-4.16,0-7.01-.72-8.47-2.15-1.42-1.39-2.15-4.1-2.15-8.05s.72-6.67,2.15-8.05c1.47-1.43,4.32-2.15,8.47-2.15h17.8c4.16,0,7.01.72,8.47,2.15,1.42,1.39,2.15,4.1,2.15,8.05s-.72,6.67-2.15,8.05c-1.47,1.43-4.32,2.15-8.47,2.15h-17.8Z"/>
      <g class="cls-13">
        <rect class="cls-7" x="7.97" y="19.7" width="45.58" height="15.91" transform="translate(-10.32 22.78) rotate(-35.19)"/>
      </g>
    </g>
  </g>
</svg>