<svg width="29" height="40" viewBox="0 0 29 40" fill="none" xmlns="http://www.w3.org/2000/svg">
<path opacity="0.2" d="M1.23185 11.9321C1.74798 11.6469 2.35856 11.7026 2.8106 12.0198C2.83759 11.5035 2.89325 10.9619 2.98264 10.3883C3.61009 6.35264 5.26137 4.16947 8.28056 3.59584C8.78319 2.94966 11.2238 -0.124326 12.0486 0.00389718C12.7284 0.110188 13.6729 2.60211 14.1233 3.9029L19.4515 4.73129C20.3371 3.63802 22.1148 1.56789 22.7946 1.67418C23.5907 1.79734 24.7495 5.19357 25.0514 6.11813C27.939 7.55727 28.924 10.169 28.2797 14.3227C27.4785 19.4804 25.0008 21.6095 20.1363 21.2232C21.1568 22.7568 23.0307 23.5633 24.8068 24.0374C25.3415 24.1808 25.9774 24.3832 26.2911 24.8742C26.5424 25.269 26.5154 25.8207 26.2321 26.1919C25.9487 26.5647 25.4005 26.6946 24.9519 26.7064C23.5097 26.7486 22.071 26.1024 20.8937 25.3263C20.6913 25.1931 20.3927 24.9771 20.0588 24.7072C20.1549 25.1694 20.2662 25.6385 20.3792 26.1193C20.7807 27.6057 21.6712 30.6881 19.4465 31.1909C19.4195 31.1976 19.3908 31.2027 19.3638 31.2094C19.0147 31.287 18.6706 31.2584 18.3619 31.1487C18.195 31.3191 17.9875 31.4372 17.7497 31.4743C17.0649 31.5806 16.4054 30.9867 16.2755 30.1499C16.2485 29.9744 16.2485 29.8024 16.2688 29.6404C15.8757 29.7382 15.4844 29.8395 15.0948 29.9424C15.0965 30.0706 15.1032 30.1988 15.1151 30.3254C15.1404 30.5633 15.1791 30.7961 15.2382 31.0222C15.3006 31.2466 15.3748 31.4642 15.4726 31.6717C15.6649 32.0868 15.9348 32.4579 16.2586 32.7886C16.3463 32.8662 16.4256 32.9506 16.5184 33.0248L16.8017 33.2458L16.9417 33.3572C16.9907 33.3892 17.0413 33.4179 17.0919 33.45L17.3887 33.6339C17.7986 33.8397 18.2203 34 18.6571 34.0675C19.094 34.1282 19.5393 34.1164 19.9778 34.0304C20.1971 33.9899 20.413 33.9241 20.6238 33.8498C20.7267 33.8077 20.8313 33.7688 20.9274 33.7216C20.978 33.6997 21.0235 33.6761 21.0691 33.6507C21.0927 33.6389 21.1146 33.6271 21.1315 33.617C21.1501 33.6069 21.1737 33.5917 21.1669 33.5968C21.6949 33.2779 22.3813 33.4466 22.7018 33.9747C23.0206 34.5028 22.8519 35.1894 22.324 35.51C22.2548 35.5488 22.216 35.5673 22.1739 35.5893C22.13 35.6129 22.0879 35.6315 22.0474 35.65C21.9647 35.6871 21.8838 35.7243 21.8028 35.7546C21.6426 35.8221 21.479 35.8727 21.317 35.9267C20.9898 36.0229 20.6609 36.1005 20.3219 36.1444C19.6489 36.2371 18.9523 36.2186 18.2793 36.0802C17.6046 35.9368 16.9755 35.6585 16.4003 35.3193L15.9921 35.0376C15.9247 34.9903 15.8555 34.9431 15.7914 34.8942L15.6076 34.7339L15.444 34.5905C15.3309 34.8554 15.0661 35.0612 14.8469 35.2249C14.523 35.4661 14.184 35.6888 13.8214 35.8677C13.5633 35.9959 13.2934 36.1022 13.0151 36.1747C12.7638 36.2388 12.4096 36.3502 12.165 36.2068C11.9306 36.0701 11.9457 35.7428 12.02 35.5184C11.325 34.3003 10.0499 31.8894 9.29932 29.6151C9.25884 29.5037 9.22005 29.389 9.18462 29.2675C9.16607 29.2068 9.15089 29.1461 9.13402 29.0853C9.0362 28.7513 8.95017 28.4223 8.88271 28.1034C8.48971 26.3521 8.33284 24.4895 8.36489 22.6471C8.08659 22.4565 6.21773 21.1557 4.45682 19.2391C2.95397 17.6026 1.7075 15.8732 0.646566 13.9516C0.248507 13.2312 0.509947 12.3252 1.23017 11.927L1.23185 11.9321Z" fill="#0E2F36"/>
<path d="M16.0394 27.4519L15.977 27.6021L15.9112 27.7758C15.8691 27.8939 15.8303 28.0137 15.7949 28.1352C15.724 28.3781 15.6667 28.6262 15.6245 28.8725C15.5385 29.3685 15.5149 29.8645 15.5587 30.342C15.584 30.5799 15.6228 30.8127 15.6819 31.0388C15.7459 31.2632 15.8185 31.4808 15.9163 31.6883C16.1086 32.1034 16.3785 32.4745 16.7023 32.8052C16.79 32.8828 16.8693 32.9672 16.9621 33.0414L17.2454 33.2624L17.3854 33.3738C17.4343 33.4059 17.4849 33.4345 17.5355 33.4666L17.8324 33.6505C18.2423 33.8563 18.6639 34.0166 19.1008 34.0841C19.5376 34.1448 19.9829 34.133 20.4215 34.047C20.6407 34.0065 20.8566 33.9407 21.0675 33.8664C21.1704 33.8243 21.2749 33.7855 21.3711 33.7382C21.4217 33.7163 21.4672 33.6927 21.5128 33.6674C21.5364 33.6556 21.5583 33.6437 21.5752 33.6336C21.5937 33.6235 21.6173 33.6083 21.6106 33.6134C22.1385 33.2945 22.825 33.4632 23.1455 33.9913C23.4643 34.5194 23.2956 35.206 22.7677 35.5266C22.6985 35.5654 22.6597 35.584 22.6175 35.6059C22.572 35.6295 22.5315 35.6481 22.491 35.6666C22.4084 35.7037 22.3274 35.7409 22.2465 35.7712C22.0862 35.8387 21.9226 35.8893 21.7607 35.9433C21.4335 36.0395 21.1046 36.1171 20.7656 36.161C20.0926 36.2538 19.396 36.2352 18.723 36.0969C18.0483 35.9534 17.4191 35.6751 16.844 35.336L16.4358 35.0542C16.3683 35.007 16.2992 34.9597 16.2351 34.9108L16.0512 34.7505L15.6869 34.43C15.5672 34.3203 15.4558 34.1938 15.3411 34.0773C14.9009 33.5796 14.5315 33.0043 14.2853 32.3801C14.1588 32.0696 14.0694 31.7457 14.0002 31.4234C13.9344 31.0995 13.899 30.7722 13.8838 30.4483C13.8602 29.8004 13.9311 29.1644 14.0711 28.5553C14.1419 28.2499 14.2279 27.9513 14.3308 27.6594C14.3831 27.5126 14.4388 27.3675 14.4978 27.2224L14.5939 27.0048C14.6294 26.9289 14.658 26.8681 14.7069 26.772C14.8959 26.4075 15.3462 26.2658 15.7105 26.4548C16.0546 26.6336 16.1997 27.0436 16.0563 27.3962L16.0344 27.4485L16.0394 27.4519Z" fill="#FCFEFD"/>
<path opacity="0.5" d="M21.8232 33.9513C21.7894 33.8517 21.921 33.7184 22.1166 33.6526C22.3123 33.5868 22.4961 33.6155 22.5299 33.7151C22.5636 33.8146 22.4321 33.9479 22.2364 34.0137C22.0407 34.0795 21.8569 34.0508 21.8232 33.9513Z" fill="white"/>
<path opacity="0.5" d="M21.3523 34.1061C21.3371 34.0572 21.3996 33.9931 21.494 33.9627C21.5885 33.9306 21.6779 33.9441 21.693 33.9931C21.7082 34.042 21.6458 34.1061 21.5514 34.1365C21.4569 34.1685 21.3675 34.155 21.3523 34.1061Z" fill="white"/>
<path opacity="0.5" d="M14.0115 28.8626L15.425 28.5234L15.6156 28.9452C15.5397 29.4159 15.5194 29.8883 15.5599 30.3439C15.5852 30.5818 15.624 30.8146 15.6831 31.0407C15.7455 31.2651 15.8197 31.4827 15.9175 31.6902C16.1098 32.1053 16.3797 32.4764 16.7035 32.8071C16.7912 32.8847 16.8705 32.9691 16.9633 33.0433L17.2466 33.2643L17.3057 33.3116C16.5112 32.8797 15.99 33.1564 16.3847 34.1653C16.7103 34.997 18.3598 36.173 20.3906 36.1156C20.3299 36.1578 20.2624 36.1915 20.1865 36.2135C19.6991 36.2337 19.2049 36.1966 18.7242 36.0987C18.0495 35.9553 17.4204 35.677 16.8452 35.3378L16.437 35.0561C16.3695 35.0088 16.3004 34.9616 16.2363 34.9127L16.0524 34.7524L15.6881 34.4318C15.5684 34.3222 15.457 34.1956 15.3423 34.0792C14.9021 33.5815 14.5327 33.0062 14.2865 32.382C14.16 32.0715 14.0706 31.7476 14.0014 31.4253C13.9356 31.1014 13.9002 30.7741 13.885 30.4502C13.8648 29.9103 13.912 29.3771 14.0082 28.8626H14.0115Z" fill="#E7E1EA"/>
<path d="M18.3111 22.2022C18.8188 23.4692 20.6472 24.8881 21.3404 25.3454C22.5178 26.1214 23.9565 26.7676 25.3986 26.7254C25.8473 26.7119 26.3955 26.582 26.6788 26.2109C26.9622 25.8397 26.9892 25.2863 26.7379 24.8932C26.4241 24.4022 25.7883 24.1998 25.2536 24.0564C23.4252 23.5688 21.4906 22.7303 20.4937 21.1089L20.4718 21.0735L20.46 21.0566L20.3841 20.9436C20.0164 20.4003 19.2776 20.2586 18.7345 20.6264C18.1256 21.0397 18.0716 21.6033 18.3111 22.2022Z" fill="#FCFEFD"/>
<path d="M21.3401 25.3454C20.6469 24.8881 18.8185 23.4692 18.3108 22.2022C18.181 21.8766 18.1388 21.5628 18.2231 21.2759L18.299 21.0887C18.3884 20.92 18.5284 20.7647 18.7325 20.6264C19.2756 20.2586 20.0144 20.4003 20.3821 20.9436L20.458 21.0566L20.4698 21.0735L20.4917 21.1089C20.5929 21.2743 20.7059 21.4312 20.8257 21.5796C20.964 21.7517 21.2727 22.0672 21.2727 22.0672C20.8004 21.5509 19.7766 22.6746 20.8308 24.247C21.8832 25.8194 25.0542 27.0258 26.5723 26.3273C26.272 26.6107 25.7964 26.7153 25.3983 26.7271C23.9562 26.7693 22.5174 26.1231 21.3401 25.347V25.3454Z" fill="#E7E1EA"/>
<path d="M16.7225 30.1667C16.8524 31.0035 17.5119 31.5974 18.1967 31.4911C18.8815 31.3848 19.3302 30.6206 19.2003 29.782C19.0704 28.9452 18.4109 28.3513 17.7261 28.4576C17.0413 28.5639 16.5926 29.3282 16.7225 30.1667Z" fill="#FCFEFD"/>
<path d="M16.7228 30.1667C16.5929 29.3299 17.0416 28.5639 17.7264 28.4576C18.4112 28.3513 19.0707 28.9452 19.2006 29.782C19.3085 30.4822 19.0117 31.1301 18.5124 31.3865C18.7148 31.2414 17.9355 30.7066 17.7028 30.548C17.47 30.3877 16.6317 29.5779 16.7785 30.4029C16.7565 30.327 16.738 30.2477 16.7245 30.1667H16.7228Z" fill="#E7E1EA"/>
<path d="M12.4713 35.5378C11.6195 34.043 9.8923 30.7547 9.33232 28.1244C10.5636 27.7668 12.3414 27.7162 13.5845 27.4023C14.1394 30.1271 14.7534 31.9779 15.8109 34.0312C15.8784 34.1611 15.9644 34.3264 15.9357 34.4749C15.87 34.8056 15.5512 35.0536 15.2948 35.2425C14.9709 35.4821 14.6319 35.7065 14.2693 35.8853C14.0112 36.0136 13.7413 36.1199 13.463 36.1924C13.2117 36.2565 12.8575 36.3679 12.6129 36.2245C12.3785 36.0878 12.3937 35.7605 12.4679 35.5361L12.4713 35.5378Z" fill="#FCFEFD"/>
<path d="M12.1663 30.9709C12.3704 30.9287 12.5863 30.8427 12.7769 30.7785C15.0708 30.0092 17.3445 29.5081 19.6941 28.9261C20.1596 28.8113 20.6555 28.6004 20.9034 28.1584C21.1514 27.7147 21.0552 27.1427 20.9574 26.7125C20.5087 24.7267 19.9673 23.0008 20.3957 21.0133C20.4598 20.7164 20.5374 20.4397 20.4109 20.1461C20.0365 19.2789 19.2387 18.9044 18.3312 18.8251C15.8838 18.6091 13.9576 17.9731 11.5085 17.8701C10.7799 17.8398 10.3666 17.4602 9.81677 18.0979C9.2669 18.7357 8.99197 19.8357 8.9127 20.7653C8.66813 23.6082 8.84523 26.6265 9.63629 29.2871C9.80159 29.8439 9.99556 30.2842 10.3649 30.6419C10.7343 30.9979 11.1138 31.0232 11.5676 31.0603C11.7868 31.0772 11.9673 31.0131 12.1697 30.9709H12.1663Z" fill="#FCFEFD"/>
<path d="M20.3511 21.2466C20.3511 21.2466 17.8699 22.7195 16.6994 23.3134C16.4362 23.4467 16.1259 23.4534 15.8577 23.3286C14.6129 22.7499 10.9646 20.8805 9.53427 19.5527C8.13432 18.2536 20.4421 20.4992 20.3511 21.2466Z" fill="#E7E1EA"/>
<path d="M20.3974 21.0149C20.3974 21.0149 18.2722 22.26 16.6563 23.0968C16.4792 23.1896 16.2718 23.198 16.0862 23.1221C14.8718 22.6244 10.2418 20.6302 9.37487 18.8232C8.37466 16.7396 13.0789 16.9471 13.0789 16.9471L21.3926 19.0358L20.3957 21.0149H20.3974Z" fill="url(#paint0_linear_2877_6508)"/>
<path d="M17.587 29.5841C17.501 28.6376 17.3391 27.6844 17.0574 26.6805C18.3123 26.4713 19.5672 26.3195 20.8272 26.1406C21.2286 27.627 22.1192 30.7094 19.8944 31.2122C19.8675 31.219 19.8388 31.224 19.8118 31.2308C18.7256 31.472 17.6866 30.6942 17.587 29.5858V29.5841Z" fill="#FCFEFD"/>
<path d="M25.5742 6.37041C25.5742 6.37041 24.1641 1.83872 23.2432 1.69531C22.3223 1.5519 19.3807 5.40704 19.3807 5.40704L19.2373 6.3316L25.4308 7.29496L25.5742 6.37041Z" fill="#FCFEFD"/>
<path d="M24.0898 5.81733C23.8318 4.97038 23.4826 4.02726 23.1925 3.43676C23.1132 3.27479 22.867 3.23261 22.7371 3.35915C22.2547 3.82649 21.5885 4.6127 21.0386 5.34324L24.0898 5.81733Z" fill="url(#paint1_linear_2877_6508)"/>
<path opacity="0.3" d="M23.1925 3.43753C23.4809 4.02972 23.8318 4.97115 24.0898 5.8181L23.3629 5.70506C23.4034 5.0302 23.3038 3.33968 22.9749 3.28906C23.066 3.30256 23.152 3.35317 23.1925 3.43584V3.43753Z" fill="#0097AB"/>
<path d="M23.0977 1.69922C21.7652 2.7385 19.7681 5.79056 19.4173 6.35576L19.2351 6.32707L19.3785 5.40252C19.3785 5.40252 22.0468 1.91517 23.0977 1.69922Z" fill="#E7E1EA"/>
<path d="M24.0915 5.81673C23.8334 4.96978 23.4842 4.02666 23.1941 3.43616C23.1537 3.35349 23.0676 3.30118 22.9766 3.28937C22.9766 3.28937 23.2717 3.25226 23.6209 3.98785C24.056 4.90229 24.4355 6.04112 24.4355 6.04112L23.9076 5.95845L23.8452 5.77961L24.0898 5.81841L24.0915 5.81673Z" fill="#E7E1EA"/>
<path d="M14.8281 4.69853C14.8281 4.69853 13.418 0.166843 12.4971 0.0234353C11.5762 -0.119973 8.63457 3.73517 8.63457 3.73517L8.49121 4.65973L14.6848 5.62309L14.8281 4.69853Z" fill="#FCFEFD"/>
<path d="M13.3457 4.14936C13.0876 3.30241 12.7385 2.35929 12.4484 1.76879C12.3691 1.60682 12.1228 1.56464 11.993 1.69118C11.5106 2.15852 10.8443 2.94473 10.2945 3.67527L13.3457 4.14936Z" fill="url(#paint2_linear_2877_6508)"/>
<path opacity="0.3" d="M12.4484 1.76566C12.7368 2.35785 13.0876 3.29928 13.3457 4.14623L12.6187 4.03319C12.6592 3.35833 12.5597 1.6678 12.2308 1.61719C12.3219 1.63068 12.4079 1.6813 12.4484 1.76397V1.76566Z" fill="#0097AB"/>
<path d="M12.3535 0.03125C11.021 1.07054 9.02398 4.12259 8.67314 4.68779L8.49098 4.65911L8.63435 3.73455C8.63435 3.73455 11.3027 0.247205 12.3535 0.03125Z" fill="#E7E1EA"/>
<path d="M13.3454 4.14485C13.0873 3.2979 12.7382 2.35478 12.448 1.76428C12.4076 1.68161 12.3215 1.62931 12.2305 1.6175C12.2305 1.6175 12.5256 1.58038 12.8748 2.31598C13.3099 3.23042 13.6895 4.36924 13.6895 4.36924L13.1615 4.28657L13.0991 4.10773L13.3437 4.14654L13.3454 4.14485Z" fill="#E7E1EA"/>
<path d="M10.407 19.7086L19.2554 21.0853C25.0054 21.9795 27.8542 19.9498 28.7262 14.3417C29.5982 8.73364 27.4983 5.93466 21.7483 5.04047L12.8999 3.66376C7.14999 2.76957 4.30116 4.79921 3.42914 10.4073C2.55711 16.0154 4.65705 18.8144 10.407 19.7086Z" fill="#FCFEFD"/>
<path d="M20.1098 18.447C22.2553 18.781 23.8037 18.6224 24.7077 17.9796C25.5916 17.3503 26.2005 15.9922 26.5192 13.9423C26.838 11.8924 26.6694 10.4127 26.0183 9.54555C25.3521 8.65642 23.9251 8.03724 21.7796 7.70318L12.9312 6.32647C10.7857 5.99241 9.23904 6.151 8.33328 6.79381C7.44946 7.42312 6.84056 8.78127 6.52177 10.8312C6.20299 12.8811 6.37166 14.3607 7.02272 15.2279C7.68897 16.117 9.11591 16.7362 11.2614 17.0702L20.1098 18.447Z" fill="#E7E1EA"/>
<path d="M20.1581 18.1562C22.2243 18.4767 23.6984 18.3367 24.5367 17.7394C25.3531 17.1591 25.9215 15.8667 26.2268 13.8995C26.5321 11.9323 26.3837 10.5286 25.7815 9.72717C25.1625 8.90215 23.8013 8.32177 21.7351 8.00121L12.8867 6.6245C10.8205 6.30394 9.34634 6.44397 8.50805 7.04122C7.69169 7.6216 7.12327 8.91396 6.81798 10.8812C6.51269 12.8484 6.66111 14.2521 7.26327 15.0535C7.88228 15.8785 9.24345 16.4589 11.3097 16.7795L20.1581 18.1562Z" fill="#0E1F35"/>
<path d="M12.8813 3.65816L14.1328 3.85219C8.80455 3.02379 5.72127 4.83579 4.91334 10.0339C4.67889 11.5388 4.27239 13.005 4.9184 13.9144C5.85283 15.2286 6.9593 16.4636 8.22601 17.7897C8.8872 18.4832 10.1505 18.4629 11.3784 18.6536L20.0211 19.9982C25.2465 20.8114 27.8861 19.0146 28.748 14.0426C28.7346 14.1404 28.7227 14.2366 28.7059 14.3378C27.8339 19.9459 24.985 21.9756 19.2351 21.0814L10.3867 19.7047C4.63672 18.8105 2.53678 16.0115 3.40881 10.4034C4.28083 4.7953 7.12966 2.76566 12.8796 3.65985L12.8813 3.65816Z" fill="#E7E1EA"/>
<g opacity="0.4">
<path d="M12.1124 9.90971L12.4805 9.96875L12.4214 10.3369L12.0534 10.2779L12.1124 9.90971Z" fill="#FCFEFD"/>
<path d="M11.7452 9.84721L12.1133 9.90625L12.0543 10.2744L11.6862 10.2154L11.7452 9.84721Z" fill="#FCFEFD"/>
<path d="M11.6261 10.5816L11.9941 10.6406L11.9351 11.0088L11.5671 10.9497L11.6261 10.5816Z" fill="#FCFEFD"/>
<path d="M11.9952 10.6441L12.3633 10.7031L12.3043 11.0713L11.9362 11.0122L11.9952 10.6441Z" fill="#FCFEFD"/>
<path d="M12.421 10.3355L12.7891 10.3945L12.73 10.7627L12.362 10.7037L12.421 10.3355Z" fill="#FCFEFD"/>
<path d="M11.4347 9.42143L11.8027 9.48047L11.7437 9.84863L11.3757 9.78959L11.4347 9.42143Z" fill="#FCFEFD"/>
<path d="M11.2003 10.898L11.5684 10.957L11.5093 11.3252L11.1413 11.2662L11.2003 10.898Z" fill="#FCFEFD"/>
<path d="M11.0655 9.36284L11.4336 9.42188L11.3746 9.79003L11.0065 9.731L11.0655 9.36284Z" fill="#FCFEFD"/>
<path d="M10.8312 10.8355L11.1992 10.8945L11.1402 11.2627L10.7721 11.2037L10.8312 10.8355Z" fill="#FCFEFD"/>
<path d="M12.7882 10.3941L13.1562 10.4531L13.0972 10.8213L12.7292 10.7622L12.7882 10.3941Z" fill="#FCFEFD"/>
<path d="M16.378 11.8863L16.7461 11.9453L16.6871 12.3135L16.319 12.2544L16.378 11.8863Z" fill="#FCFEFD"/>
<path d="M16.0108 11.8277L16.3789 11.8867L16.3199 12.2549L15.9518 12.1958L16.0108 11.8277Z" fill="#FCFEFD"/>
<path d="M16.7452 11.9449L17.1133 12.0039L17.0543 12.3721L16.6862 12.313L16.7452 11.9449Z" fill="#FCFEFD"/>
<path d="M16.3194 12.2535L16.6875 12.3125L16.6285 12.6807L16.2604 12.6216L16.3194 12.2535Z" fill="#FCFEFD"/>
<path d="M16.2589 12.6207L16.627 12.6797L16.5679 13.0478L16.1999 12.9888L16.2589 12.6207Z" fill="#FCFEFD"/>
<path d="M15.8331 12.9332L16.2012 12.9922L16.1422 13.3603L15.7741 13.3013L15.8331 12.9332Z" fill="#FCFEFD"/>
<path d="M16.5675 13.0503L16.9355 13.1094L16.8765 13.4775L16.5085 13.4185L16.5675 13.0503Z" fill="#FCFEFD"/>
<path d="M16.88 13.4761L17.248 13.5352L17.189 13.9033L16.821 13.8443L16.88 13.4761Z" fill="#FCFEFD"/>
<path d="M15.4073 13.2378L15.7754 13.2969L15.7164 13.665L15.3483 13.606L15.4073 13.2378Z" fill="#FCFEFD"/>
<path d="M15.0382 13.1792L15.4062 13.2383L15.3472 13.6064L14.9792 13.5474L15.0382 13.1792Z" fill="#FCFEFD"/>
<path d="M17.2472 13.5347L17.6152 13.5938L17.5562 13.9619L17.1882 13.9029L17.2472 13.5347Z" fill="#FCFEFD"/>
<path d="M16.4366 11.5152L16.8047 11.5742L16.7457 11.9424L16.3776 11.8833L16.4366 11.5152Z" fill="#FCFEFD"/>
<path d="M16.0694 11.4605L16.4375 11.5195L16.3785 11.8877L16.0104 11.8287L16.0694 11.4605Z" fill="#FCFEFD"/>
<path d="M16.8038 11.5777L17.1719 11.6367L17.1129 12.0049L16.7448 11.9458L16.8038 11.5777Z" fill="#FCFEFD"/>
<path d="M16.0831 13.7222L16.4512 13.7812L16.3922 14.1494L16.0241 14.0904L16.0831 13.7222Z" fill="#FCFEFD"/>
<path d="M15.714 13.6636L16.082 13.7227L16.023 14.0908L15.655 14.0318L15.714 13.6636Z" fill="#FCFEFD"/>
<path d="M16.4523 13.7847L16.8203 13.8438L16.7613 14.2119L16.3932 14.1529L16.4523 13.7847Z" fill="#FCFEFD"/>
<path d="M16.1417 13.3589L16.5098 13.418L16.4507 13.7861L16.0827 13.7271L16.1417 13.3589Z" fill="#FCFEFD"/>
<path d="M15.7745 13.2964L16.1426 13.3555L16.0836 13.7236L15.7155 13.6646L15.7745 13.2964Z" fill="#FCFEFD"/>
<path d="M16.5108 13.4136L16.8789 13.4727L16.8199 13.8408L16.4518 13.7818L16.5108 13.4136Z" fill="#FCFEFD"/>
<path d="M16.0245 14.0933L16.3926 14.1523L16.3336 14.5205L15.9655 14.4615L16.0245 14.0933Z" fill="#FCFEFD"/>
<path d="M15.6554 14.0347L16.0234 14.0938L15.9644 14.4619L15.5964 14.4029L15.6554 14.0347Z" fill="#FCFEFD"/>
<path d="M16.3937 14.1558L16.7617 14.2148L16.7027 14.583L16.3346 14.524L16.3937 14.1558Z" fill="#FCFEFD"/>
<path d="M16.2003 12.9878L16.5684 13.0469L16.5093 13.415L16.1413 13.356L16.2003 12.9878Z" fill="#FCFEFD"/>
<path d="M14.7296 12.7535L15.0977 12.8125L15.0386 13.1807L14.6706 13.1216L14.7296 12.7535Z" fill="#FCFEFD"/>
<path d="M17.673 13.2222L18.041 13.2812L17.982 13.6494L17.6139 13.5904L17.673 13.2222Z" fill="#FCFEFD"/>
</g>
<g opacity="0.4">
<path d="M20.6697 11.4538L21.0352 11.5273L20.9616 11.8929L20.5962 11.8193L20.6697 11.4538Z" fill="#FCFEFD"/>
<path d="M21.035 11.528L21.4004 11.6016L21.3268 11.9671L20.9614 11.8935L21.035 11.528Z" fill="#FCFEFD"/>
<path d="M20.8885 12.2585L21.2539 12.332L21.1804 12.6976L20.8149 12.624L20.8885 12.2585Z" fill="#FCFEFD"/>
<path d="M20.5232 12.1842L20.8887 12.2578L20.8151 12.6233L20.4497 12.5498L20.5232 12.1842Z" fill="#FCFEFD"/>
<path d="M20.2303 11.7467L20.5957 11.8203L20.5222 12.1858L20.1567 12.1123L20.2303 11.7467Z" fill="#FCFEFD"/>
<path d="M21.4725 11.235L21.8379 11.3086L21.7643 11.6741L21.3989 11.6006L21.4725 11.235Z" fill="#FCFEFD"/>
<path d="M21.1775 12.696L21.543 12.7695L21.4694 13.1351L21.104 13.0615L21.1775 12.696Z" fill="#FCFEFD"/>
<path d="M21.8396 11.3092L22.2051 11.3828L22.1315 11.7483L21.7661 11.6748L21.8396 11.3092Z" fill="#FCFEFD"/>
<path d="M21.5428 12.7702L21.9082 12.8438L21.8347 13.2093L21.4692 13.1357L21.5428 12.7702Z" fill="#FCFEFD"/>
<path d="M19.865 11.6725L20.2305 11.7461L20.1569 12.1116L19.7915 12.0381L19.865 11.6725Z" fill="#FCFEFD"/>
</g>
<path d="M9.61835 22.9397C10.1193 22.9599 10.6169 22.7254 10.9154 22.2783C11.3725 21.595 11.1988 20.7801 10.5157 20.3229C10.4971 20.3111 8.71765 19.0019 7.10011 17.2422C5.75918 15.7828 4.64934 14.2424 3.7031 12.5317C3.30504 11.8112 2.39928 11.5497 1.67906 11.9479C0.958845 12.3461 0.697409 13.2521 1.09547 13.9725C2.1564 15.8941 3.40287 17.6235 4.90572 19.26C6.77289 21.293 8.76488 22.6343 8.84752 22.69C9.08535 22.8486 9.35016 22.9296 9.61666 22.9397H9.61835Z" fill="#FCFEFD"/>
<path d="M2.25947 13.117C2.58163 12.9399 2.92066 12.9668 3.01849 13.1777C3.11631 13.3886 2.93415 13.7024 2.61199 13.8796C2.28983 14.0567 1.95081 14.0298 1.85298 13.8189C1.75515 13.608 1.93731 13.2942 2.25947 13.117Z" fill="url(#paint3_linear_2877_6508)"/>
<path d="M1.33295 13.2541C1.38356 13.1681 1.48644 13.1344 1.56403 13.1816C1.64162 13.2272 1.66355 13.3351 1.61463 13.4229C1.56403 13.5089 1.46114 13.5426 1.38356 13.4954C1.30597 13.4499 1.28404 13.3419 1.33295 13.2541Z" fill="url(#paint4_linear_2877_6508)"/>
<path d="M2.82701 12.8013C2.73424 12.8384 2.63135 12.8013 2.59761 12.7136C2.56388 12.6258 2.60942 12.528 2.70219 12.4909C2.79496 12.4538 2.89785 12.4909 2.93158 12.5786C2.967 12.6647 2.91977 12.7642 2.82701 12.8013Z" fill="url(#paint5_linear_2877_6508)"/>
<path d="M1.9429 12.5509C2.03567 12.5172 2.1335 12.5577 2.16386 12.6437C2.19254 12.7298 2.14194 12.8276 2.04917 12.8614C1.9564 12.8951 1.85857 12.8546 1.8299 12.7686C1.80122 12.6825 1.85182 12.5847 1.94459 12.5509H1.9429Z" fill="url(#paint6_linear_2877_6508)"/>
<path d="M25.7589 25.6848C25.7319 26.0155 25.543 26.2584 25.3372 26.2264C25.1297 26.196 24.9847 25.9024 25.01 25.5718C25.0369 25.2411 25.2259 24.9981 25.4316 25.0302C25.6391 25.0606 25.7842 25.3541 25.7589 25.6848Z" fill="url(#paint7_linear_2877_6508)"/>
<path d="M25.8747 24.7951C25.8038 24.8356 25.7853 24.9318 25.8325 25.0094C25.8797 25.087 25.9742 25.1157 26.045 25.0752C26.1159 25.0347 26.1344 24.9385 26.0872 24.8609C26.04 24.7833 25.9455 24.7546 25.8747 24.7968V24.7951Z" fill="url(#paint8_linear_2877_6508)"/>
<path d="M25.8941 26.1396C25.8131 26.1227 25.7321 26.1818 25.7136 26.2695C25.6967 26.3572 25.7473 26.4416 25.83 26.4585C25.9109 26.4753 25.9919 26.4163 26.0104 26.3286C26.0273 26.2408 25.9767 26.1565 25.8941 26.1396Z" fill="url(#paint9_linear_2877_6508)"/>
<path d="M26.2371 25.5316C26.1578 25.5114 26.0769 25.5653 26.0583 25.6514C26.0381 25.7374 26.087 25.8252 26.1662 25.8454C26.2455 25.8657 26.3265 25.8117 26.345 25.7256C26.3653 25.6396 26.3164 25.5518 26.2371 25.5316Z" fill="url(#paint10_linear_2877_6508)"/>
<path d="M18.6035 27.751C19.2562 27.5486 19.5362 27.3596 19.575 26.7101C19.6205 25.9643 19.5716 25.055 19.4502 24.397C19.322 23.6951 18.9813 23.4151 18.3134 23.4572C16.5609 23.5703 14.6246 23.8217 12.8586 24.1642C12.2025 24.2924 11.9427 24.6534 11.9882 25.3705C12.0304 26.0335 12.1991 26.9125 12.4302 27.6667C12.6376 28.3483 13.0441 28.4208 13.6429 28.4529C14.3631 28.4917 15.1002 28.4613 15.8676 28.3618C16.738 28.2487 17.6454 28.0446 18.6035 27.7494V27.751ZM18.3252 23.6074C18.9155 23.5686 19.1904 23.798 19.3051 24.424C19.4232 25.0718 19.4721 25.966 19.4266 26.7016C19.3912 27.2904 19.1348 27.4305 18.5596 27.6093C16.7785 28.161 15.1727 28.3888 13.653 28.3061C13.0509 28.2741 12.7489 28.1964 12.5752 27.6262C12.3492 26.8822 12.1822 26.015 12.14 25.3637C12.0979 24.7125 12.302 24.4273 12.8889 24.3126C13.7627 24.1422 14.6785 23.9954 15.5927 23.8757C16.5187 23.7559 17.4447 23.6631 18.3235 23.6074H18.3252Z" fill="#E7E1EA"/>
<path d="M17.6662 24.6282C16.6492 24.7294 15.5157 24.8374 14.5037 24.9808C14.2524 25.0162 14.1191 24.9015 14.0871 24.6872C14.0803 24.64 14.055 24.6956 14.0871 24.6872C14.055 24.4729 14.1613 24.3093 14.416 24.2738C15.4364 24.1321 16.58 23.9972 17.6089 23.9314C17.8653 23.9145 17.9951 24.0258 18.0154 24.2485C18.039 24.2469 18.0339 24.2485 18.0154 24.2485C18.0339 24.4712 17.9209 24.6012 17.6679 24.6265L17.6662 24.6282Z" fill="#E7E1EA"/>
<path d="M13.0677 36.1148C13.1403 36.2075 13.4186 36.1249 13.4928 36.1013C13.6496 36.0506 13.8065 35.9916 13.9583 35.9275C14.2636 35.7993 14.5588 35.644 14.8388 35.4669C14.972 35.3825 15.1036 35.2897 15.2301 35.1953C15.392 35.0738 15.5742 34.9456 15.6939 34.7785C15.7546 34.6925 15.7698 34.5828 15.6298 34.5946C15.4055 34.6149 15.1963 34.7043 14.9922 34.7954C14.6768 34.9354 14.3665 35.0873 14.0663 35.256C13.7711 35.423 13.4624 35.6052 13.2044 35.8279C13.1487 35.8752 13.0778 35.9376 13.0576 36.0118C13.0458 36.0574 13.0509 36.0911 13.0677 36.1131V36.1148Z" fill="#E7E1EA"/>
<path d="M17.5183 28.9688L17.5723 29.4445C16.4759 29.7128 15.388 29.9878 14.3018 30.305H14.2984L14.1263 29.8258C16.3528 29.8444 17.5183 28.9704 17.5183 28.9704V28.9688Z" fill="#E7E1EA"/>
<path d="M19.8606 34.121L19.864 34.1193C20.0529 34.1092 20.2401 34.0889 20.4273 34.0518C20.6466 34.0113 20.8625 33.9455 21.0733 33.8713C21.1762 33.8291 21.2808 33.7903 21.3769 33.7431C21.4275 33.7211 21.4731 33.6975 21.5186 33.6722C21.5422 33.6604 21.5642 33.6486 21.581 33.6385C21.5996 33.6284 21.6232 33.6132 21.6164 33.6182C22.1444 33.2994 22.8309 33.4681 23.1513 33.9962C23.4701 34.5242 23.3015 35.2109 22.7735 35.5315C22.7044 35.5703 22.6656 35.5888 22.6234 35.6108C22.5796 35.6344 22.5374 35.6529 22.4969 35.6715C22.4143 35.7086 22.3333 35.7457 22.2523 35.7761C22.0921 35.8436 21.9285 35.8942 21.7666 35.9482C21.4393 36.0444 21.1104 36.122 20.7714 36.1658C20.5741 36.1928 20.3767 36.2097 20.176 36.2181C21.1644 36.019 20.8912 34.202 19.8606 34.121Z" fill="url(#paint11_linear_2877_6508)"/>
<path opacity="0.5" d="M23.0332 35.3103C22.959 35.3946 22.8713 35.4689 22.7718 35.5296C22.7026 35.5684 22.6638 35.587 22.6216 35.6089C22.5778 35.6325 22.5356 35.6511 22.4951 35.6696C22.4125 35.7068 22.3315 35.7439 22.2506 35.7742C22.0903 35.8417 21.9267 35.8923 21.7648 35.9463C21.4376 36.0425 21.1087 36.1201 20.7697 36.164C20.5774 36.191 20.3851 36.2062 20.1894 36.2146C20.2653 36.191 20.3345 36.1589 20.3935 36.1167C21.2301 36.0931 22.1308 35.862 23.0315 35.3086L23.0332 35.3103Z" fill="black"/>
<path opacity="0.5" d="M21.7401 34.0423C21.7705 34.1435 21.9577 34.1688 22.1601 34.1013C22.3625 34.0338 22.5008 33.8972 22.4704 33.7959C22.4401 33.6947 22.2528 33.6694 22.0504 33.7369C21.848 33.8044 21.7097 33.941 21.7401 34.0423Z" fill="white"/>
<path opacity="0.5" d="M21.2528 34.2116C21.2679 34.2605 21.3573 34.2723 21.4552 34.2403C21.553 34.2082 21.6205 34.1407 21.6053 34.0935C21.5901 34.0445 21.5007 34.0327 21.4029 34.0648C21.3051 34.0968 21.2376 34.1643 21.2528 34.2116Z" fill="white"/>
<path opacity="0.1" d="M16.1081 39.1269C12.1314 39.1269 8.90758 38.7802 8.90758 38.3525C8.90758 37.9248 12.1314 37.5781 16.1081 37.5781C20.0848 37.5781 23.3086 37.9248 23.3086 38.3525C23.3086 38.7802 20.0848 39.1269 16.1081 39.1269Z" fill="#001147"/>
<path d="M9.45585 22.1767C9.64476 22.3016 9.75608 22.5142 9.74428 22.7402C9.66669 24.2232 9.59416 29.9916 12.7702 34.5486C12.8529 34.6667 13.5444 34.5267 13.8008 34.4929C13.8008 34.4929 12.8478 34.9282 12.4717 35.5407C11.7767 34.3225 10.5016 31.9116 9.75102 29.6373C9.71054 29.526 9.67175 29.4112 9.63633 29.2898C9.61777 29.229 9.60259 29.1683 9.58573 29.1075C9.4879 28.7735 9.40188 28.4445 9.33441 28.1256C8.94141 26.3744 8.78455 24.5117 8.81659 22.6694C8.53829 22.4787 6.66943 21.1779 4.90852 19.2613C3.40567 17.6248 2.1592 15.8955 1.09827 13.9738C0.700212 13.2534 0.961648 12.3474 1.68187 11.9492C0.69515 12.4672 4.26589 18.74 9.45754 22.175L9.45585 22.1767Z" fill="#E7E1EA"/>
<defs>
<linearGradient id="paint0_linear_2877_6508" x1="21.3926" y1="20.0566" x2="9.23487" y2="20.0566" gradientUnits="userSpaceOnUse">
<stop stop-color="#FFAA67"/>
<stop offset="0.21" stop-color="#FF7E7A"/>
<stop offset="0.46" stop-color="#FF518C"/>
<stop offset="1" stop-color="#5E309C"/>
</linearGradient>
<linearGradient id="paint1_linear_2877_6508" x1="25.3363" y1="4.90458" x2="10.9435" y2="2.36169" gradientUnits="userSpaceOnUse">
<stop stop-color="#FFAA67"/>
<stop offset="0.21" stop-color="#FF7E7A"/>
<stop offset="0.46" stop-color="#FF518C"/>
<stop offset="1" stop-color="#5E309C"/>
</linearGradient>
<linearGradient id="paint2_linear_2877_6508" x1="22.1199" y1="4.33832" x2="6.98498" y2="1.98261" gradientUnits="userSpaceOnUse">
<stop stop-color="#FFAA67"/>
<stop offset="0.21" stop-color="#FF7E7A"/>
<stop offset="0.46" stop-color="#FF518C"/>
<stop offset="1" stop-color="#5E309C"/>
</linearGradient>
<linearGradient id="paint3_linear_2877_6508" x1="2.62886" y1="13.5675" x2="-24.9149" y2="3.70571" gradientUnits="userSpaceOnUse">
<stop stop-color="#FFAA67"/>
<stop offset="0.21" stop-color="#FF7E7A"/>
<stop offset="0.46" stop-color="#FF518C"/>
<stop offset="1" stop-color="#5E309C"/>
</linearGradient>
<linearGradient id="paint4_linear_2877_6508" x1="3.41265" y1="14.0319" x2="-24.1328" y2="4.17021" gradientUnits="userSpaceOnUse">
<stop stop-color="#FFAA67"/>
<stop offset="0.21" stop-color="#FF7E7A"/>
<stop offset="0.46" stop-color="#FF518C"/>
<stop offset="1" stop-color="#5E309C"/>
</linearGradient>
<linearGradient id="paint5_linear_2877_6508" x1="3.84745" y1="13.0341" x2="-23.6963" y2="3.17409" gradientUnits="userSpaceOnUse">
<stop stop-color="#FFAA67"/>
<stop offset="0.21" stop-color="#FF7E7A"/>
<stop offset="0.46" stop-color="#FF518C"/>
<stop offset="1" stop-color="#5E309C"/>
</linearGradient>
<linearGradient id="paint6_linear_2877_6508" x1="3.81176" y1="13.3574" x2="-23.7336" y2="3.49565" gradientUnits="userSpaceOnUse">
<stop stop-color="#FFAA67"/>
<stop offset="0.21" stop-color="#FF7E7A"/>
<stop offset="0.46" stop-color="#FF518C"/>
<stop offset="1" stop-color="#5E309C"/>
</linearGradient>
<linearGradient id="paint7_linear_2877_6508" x1="27.3916" y1="26.579" x2="11.2618" y2="18.9497" gradientUnits="userSpaceOnUse">
<stop stop-color="#FFAA67"/>
<stop offset="0.21" stop-color="#FF7E7A"/>
<stop offset="0.46" stop-color="#FF518C"/>
<stop offset="1" stop-color="#5E309C"/>
</linearGradient>
<linearGradient id="paint8_linear_2877_6508" x1="27.7638" y1="25.7888" x2="11.634" y2="18.1595" gradientUnits="userSpaceOnUse">
<stop stop-color="#FFAA67"/>
<stop offset="0.21" stop-color="#FF7E7A"/>
<stop offset="0.46" stop-color="#FF518C"/>
<stop offset="1" stop-color="#5E309C"/>
</linearGradient>
<linearGradient id="paint9_linear_2877_6508" x1="27.2198" y1="26.941" x2="11.09" y2="19.3117" gradientUnits="userSpaceOnUse">
<stop stop-color="#FFAA67"/>
<stop offset="0.21" stop-color="#FF7E7A"/>
<stop offset="0.46" stop-color="#FF518C"/>
<stop offset="1" stop-color="#5E309C"/>
</linearGradient>
<linearGradient id="paint10_linear_2877_6508" x1="27.5156" y1="26.3094" x2="11.3841" y2="18.6817" gradientUnits="userSpaceOnUse">
<stop stop-color="#FFAA67"/>
<stop offset="0.21" stop-color="#FF7E7A"/>
<stop offset="0.46" stop-color="#FF518C"/>
<stop offset="1" stop-color="#5E309C"/>
</linearGradient>
<linearGradient id="paint11_linear_2877_6508" x1="23.3393" y1="35.0955" x2="19.8603" y2="34.9594" gradientUnits="userSpaceOnUse">
<stop stop-color="#FFAA67"/>
<stop offset="0.21" stop-color="#FF7E7A"/>
<stop offset="0.46" stop-color="#FF518C"/>
<stop offset="1" stop-color="#5E309C"/>
</linearGradient>
</defs>
</svg>
