<svg width="1009" height="268" viewBox="0 0 1009 268" fill="none" xmlns="http://www.w3.org/2000/svg">
<g opacity="0.64">
<g opacity="0.45">
<g opacity="0.7">
<path d="M0.827759 270.218L832.078 270.218L832.078 1.00018L0.827801 1.00013L0.827759 270.218Z" stroke="#888888" stroke-width="0.44" stroke-miterlimit="10"/>
<path d="M832.078 1.04004L0.827793 1.03998" stroke="#888888" stroke-width="0.57" stroke-miterlimit="10"/>
<path d="M832.078 90.7637L0.827732 90.7636" stroke="#888888" stroke-width="0.57" stroke-miterlimit="10"/>
<path d="M832.078 180.494L0.827732 180.494" stroke="#888888" stroke-width="0.57" stroke-miterlimit="10"/>
<path d="M104.737 270.218L104.737 1.00007" stroke="#888888" stroke-width="0.44" stroke-miterlimit="10"/>
<path d="M208.64 270.218L208.64 1.00019" stroke="#888888" stroke-width="0.44" stroke-miterlimit="10"/>
<path d="M312.55 270.218L312.55 1.00019" stroke="#888888" stroke-width="0.44" stroke-miterlimit="10"/>
<path d="M416.453 270.218L416.453 1.00019" stroke="#888888" stroke-width="0.44" stroke-miterlimit="10"/>
<path d="M520.362 270.218L520.362 1.00019" stroke="#888888" stroke-width="0.44" stroke-miterlimit="10"/>
<path d="M624.265 270.218L624.265 1.00019" stroke="#888888" stroke-width="0.44" stroke-miterlimit="10"/>
<path d="M728.175 270.218L728.175 1.00019" stroke="#888888" stroke-width="0.44" stroke-miterlimit="10"/>
</g>
</g>
<g opacity="0.45">
<g opacity="0.7">
<path d="M832.078 270.218L1663.33 270.218L1663.33 1.00031L832.078 1.00024L832.078 270.218Z" stroke="#888888" stroke-width="0.44" stroke-miterlimit="10"/>
<path d="M1663.33 1.04016L832.078 1.0401" stroke="#888888" stroke-width="0.57" stroke-miterlimit="10"/>
<path d="M1663.33 90.7638L832.078 90.7637" stroke="#888888" stroke-width="0.57" stroke-miterlimit="10"/>
<path d="M1663.33 180.494L832.078 180.494" stroke="#888888" stroke-width="0.57" stroke-miterlimit="10"/>
<path d="M935.987 270.218L935.987 1.00032" stroke="#888888" stroke-width="0.44" stroke-miterlimit="10"/>
</g>
</g>
</g>
</svg>
