<svg width="25" height="25" viewBox="0 0 25 25" fill="none" xmlns="http://www.w3.org/2000/svg">
<g clip-path="url(#clip0_45_4052)">
<path d="M13.1067 11.6959L18.5568 19.4915H16.3201L11.8727 13.1303V13.1299L11.2198 12.1961L6.02448 4.76465H8.26121L12.4538 10.7621L13.1067 11.6959Z" fill="white"/>
<path d="M21.7894 0H2.80439C1.35916 0 0.1875 1.17166 0.1875 2.61689V21.6019C0.1875 23.0471 1.35916 24.2188 2.80439 24.2188H21.7894C23.2346 24.2188 24.4062 23.0471 24.4062 21.6019V2.61689C24.4062 1.17166 23.2346 0 21.7894 0ZM15.635 20.538L11.1345 13.9881L5.49983 20.538H4.04355L10.4879 13.0473L4.04355 3.66834H8.95875L13.2204 9.87067L18.556 3.66834H20.0123L13.8672 10.8116H13.8668L20.5502 20.538H15.635Z" fill="white"/>
</g>
<defs>
<clipPath id="clip0_45_4052">
<rect width="24.2188" height="24.2188" fill="white" transform="translate(0.1875)"/>
</clipPath>
</defs>
</svg>
