<svg width="26" height="25" viewBox="0 0 26 25" fill="none" xmlns="http://www.w3.org/2000/svg">
<g clip-path="url(#clip0_45_4055)">
<path d="M4.45636 21.3892H18.8453L18.1581 19.1641L19.802 20.5748L21.3086 21.925L24.0534 24.2188V2.49756C23.9847 1.14736 22.8222 0 21.3812 0L4.46141 0.00302734C3.0214 0.00302734 1.85284 1.15241 1.85284 2.5026V18.8906C1.85284 20.3145 3.01938 21.3892 4.45636 21.3892ZM15.1005 5.7348L15.0672 5.74691L15.0793 5.7348H15.1005ZM7.39995 7.01537C9.24965 5.66921 10.9641 5.73379 10.9641 5.73379L11.1024 5.87002C8.83894 6.4099 7.81267 7.42103 7.81267 7.42103C7.81267 7.42103 8.08715 7.28682 8.56648 7.08197C11.615 5.88314 14.9441 5.96992 18.0259 7.48763C18.0259 7.48763 16.9976 6.54209 14.8734 5.93662L15.0611 5.75195C15.3548 5.75296 16.9088 5.80746 18.5719 7.02344C18.5719 7.02344 20.4327 10.2021 20.4327 14.1074C20.3711 14.0327 19.2782 15.7886 16.4658 15.8492C16.4658 15.8492 15.9895 15.3103 15.6505 14.84C17.2953 14.3678 17.9109 13.4232 17.9109 13.4232C17.371 13.7633 16.8786 13.9651 16.479 14.167C15.8644 14.4374 15.2488 14.5706 14.6343 14.7068C11.724 15.1791 10.0902 14.389 8.5463 13.7623L8.01853 13.4939C8.01853 13.4939 8.63308 14.4384 10.2123 14.9107C9.7976 15.384 9.38689 15.9218 9.38689 15.9218C6.5755 15.8552 5.55024 14.0993 5.55024 14.0993C5.55024 10.188 7.39995 7.01537 7.39995 7.01537Z" fill="white"/>
<path d="M15.2822 12.8874C15.9996 12.8874 16.5839 12.2819 16.5839 11.5352C16.5839 10.7935 16.0027 10.188 15.2822 10.188V10.191C14.5677 10.191 13.9824 10.7945 13.9804 11.5412C13.9804 12.2819 14.5647 12.8874 15.2822 12.8874Z" fill="white"/>
<path d="M10.6221 12.8874C11.3396 12.8874 11.9238 12.2819 11.9238 11.5352C11.9238 10.7935 11.3436 10.188 10.6261 10.188L10.6221 10.191C9.90459 10.191 9.32031 10.7945 9.32031 11.5412C9.32031 12.2819 9.90459 12.8874 10.6221 12.8874Z" fill="white"/>
</g>
<defs>
<clipPath id="clip0_45_4055">
<rect width="24.2188" height="24.2188" fill="white" transform="translate(0.84375)"/>
</clipPath>
</defs>
</svg>
