<svg width="25" height="25" viewBox="0 0 25 25" fill="none" xmlns="http://www.w3.org/2000/svg">
<g clip-path="url(#clip0_45_4054)">
<path d="M22.0156 0H2.64062C1.30859 0 0.21875 1.08984 0.21875 2.42188V21.7969C0.21875 23.1289 1.30859 24.2188 2.64062 24.2188H22.0156C23.3477 24.2188 24.4375 23.1289 24.4375 21.7969V2.42188C24.4375 1.08984 23.3477 0 22.0156 0ZM7.48438 20.5859H3.85156V9.6875H7.48438V20.5859ZM5.66797 7.62891C4.45703 7.62891 3.48828 6.66016 3.48828 5.44922C3.48828 4.23828 4.45703 3.26953 5.66797 3.26953C6.87891 3.26953 7.84766 4.23828 7.84766 5.44922C7.84766 6.66016 6.87891 7.62891 5.66797 7.62891ZM20.8047 20.5859H17.1719V14.168C17.1719 13.1993 16.3242 12.3516 15.3555 12.3516C14.3867 12.3516 13.5391 13.1993 13.5391 14.168V20.5859H9.90625V9.6875H13.5391V11.1406C14.1445 10.1719 15.4766 9.44531 16.5664 9.44531C18.8672 9.44531 20.8047 11.3828 20.8047 13.6836V20.5859Z" fill="white"/>
</g>
<defs>
<clipPath id="clip0_45_4054">
<rect width="24.2188" height="24.2188" fill="white" transform="translate(0.21875)"/>
</clipPath>
</defs>
</svg>
