<svg width="25" height="25" viewBox="0 0 25 25" fill="none" xmlns="http://www.w3.org/2000/svg">
<g clip-path="url(#clip0_45_4051)">
<path d="M23.6199 14.9712C23.2775 16.7329 20.553 18.6608 17.4239 19.0345C15.7923 19.2292 14.1857 19.4081 12.4727 19.3295C9.6711 19.2012 7.46046 18.6608 7.46046 18.6608C7.46046 18.9336 7.47728 19.1932 7.51092 19.4361C7.87514 22.2009 10.2525 22.3666 12.5044 22.4438C14.7774 22.5216 16.8012 21.8834 16.8012 21.8834L16.8946 23.9382C16.8946 23.9382 15.3048 24.792 12.4727 24.949C10.911 25.0348 8.97185 24.9097 6.71331 24.3119C1.81493 23.0154 0.972518 17.7939 0.84362 12.4959C0.804332 10.9229 0.82855 9.43967 0.82855 8.19913C0.82855 2.78166 4.37808 1.19372 4.37808 1.19372C6.16785 0.371758 9.23892 0.0261025 12.4316 0H12.5101C15.7028 0.0261025 18.7759 0.371758 20.5655 1.19372C20.5655 1.19372 24.1149 2.78166 24.1149 8.19913C24.1149 8.19913 24.1594 12.1962 23.6199 14.9712Z" fill="white"/>
<path d="M19.9282 8.61946V15.1791H17.3293V8.81226C17.3293 7.47014 16.7646 6.78892 15.6351 6.78892C14.3862 6.78892 13.7603 7.59702 13.7603 9.19492V12.6799H11.1768V9.19492C11.1768 7.59702 10.5508 6.78892 9.3019 6.78892C8.17236 6.78892 7.60766 7.47014 7.60766 8.81226V15.1791H5.00885V8.61946C5.00885 7.27881 5.3502 6.21345 6.03586 5.42527C6.74291 4.63708 7.66888 4.23303 8.81833 4.23303C10.1482 4.23303 11.1553 4.74418 11.8212 5.76662L12.4685 6.85175L13.116 5.76662C13.7817 4.74418 14.7888 4.23303 16.1188 4.23303C17.2681 4.23303 18.1941 4.63708 18.9013 5.42527C19.5868 6.21345 19.9282 7.27881 19.9282 8.61946Z" fill="#0E1F35"/>
</g>
<defs>
<clipPath id="clip0_45_4051">
<rect width="25" height="25" fill="white"/>
</clipPath>
</defs>
</svg>
