<svg width="26" height="25" viewBox="0 0 26 25" fill="none" xmlns="http://www.w3.org/2000/svg">
<g clip-path="url(#clip0_45_4053)">
<path d="M21.7287 0H4.11506C3.23916 0 2.39915 0.347947 1.7798 0.967296C1.16045 1.58665 0.8125 2.42666 0.8125 3.30256L0.8125 20.9162C0.8125 21.7921 1.16045 22.6321 1.7798 23.2515C2.39915 23.8708 3.23916 24.2188 4.11506 24.2188H21.7287C22.6046 24.2188 23.4446 23.8708 24.064 23.2515C24.6833 22.6321 25.0312 21.7921 25.0312 20.9162V3.30256C25.0312 2.42666 24.6833 1.58665 24.064 0.967296C23.4446 0.347947 22.6046 0 21.7287 0ZM15.2956 19.3406C14.9075 19.4149 14.7754 19.181 14.7754 18.9869C14.7754 18.7448 14.7851 17.9453 14.7851 16.9504C14.7851 16.2527 14.5388 15.7972 14.2745 15.5743C15.9575 15.3913 17.7271 14.7624 17.7271 11.9057C17.7383 11.1641 17.4599 10.4473 16.951 9.90767C17.0267 9.71915 17.2826 8.96231 16.8753 7.93852C16.8753 7.93852 16.2423 7.73899 14.8112 8.70086C13.5719 8.36693 12.2663 8.36693 11.027 8.70086C9.57941 7.73762 8.94505 7.93852 8.94505 7.93852C8.53223 8.96507 8.79368 9.7219 8.87211 9.90767C8.36205 10.4456 8.08253 11.1617 8.09326 11.903C8.09326 14.7514 9.86013 15.3913 11.5334 15.5771C11.259 15.8401 11.0889 16.1934 11.0546 16.572C10.6211 16.7619 9.52437 17.0907 8.85285 15.9541C8.85285 15.9541 8.45379 15.2385 7.6942 15.1876C7.6942 15.1876 6.95526 15.178 7.64054 15.639C7.64054 15.639 8.13867 15.8688 8.48269 16.7261C8.48269 16.7261 8.92716 18.1723 11.0325 17.7251C11.0325 18.3443 11.0408 18.8122 11.0408 18.9897C11.0408 19.1672 10.9032 19.4163 10.5248 19.3461C7.52219 18.3663 5.35352 15.5798 5.35352 12.2938C5.35352 8.18621 8.74001 4.86301 12.9219 4.86301C17.1037 4.86301 20.4902 8.19309 20.4902 12.3006C20.4902 15.5743 18.3243 18.3636 15.2956 19.3406Z" fill="white"/>
</g>
<defs>
<clipPath id="clip0_45_4053">
<rect width="24.2188" height="24.2188" fill="white" transform="translate(0.8125)"/>
</clipPath>
</defs>
</svg>
